<svg width="171" height="37" viewBox="0 0 171 37" fill="none" xmlns="http://www.w3.org/2000/svg">
<path d="M20.9716 11.1307C20.8352 9.75568 20.25 8.6875 19.2159 7.92614C18.1818 7.16477 16.7784 6.78409 15.0057 6.78409C13.8011 6.78409 12.7841 6.95454 11.9545 7.29545C11.125 7.625 10.4886 8.08523 10.0455 8.67614C9.61364 9.26705 9.39773 9.9375 9.39773 10.6875C9.375 11.3125 9.50568 11.858 9.78977 12.3239C10.0852 12.7898 10.4886 13.1932 11 13.5341C11.5114 13.8636 12.1023 14.1534 12.7727 14.4034C13.4432 14.642 14.1591 14.8466 14.9205 15.017L18.0568 15.767C19.5795 16.108 20.9773 16.5625 22.25 17.1307C23.5227 17.6989 24.625 18.3977 25.5568 19.2273C26.4886 20.0568 27.2102 21.0341 27.7216 22.1591C28.2443 23.2841 28.5114 24.5739 28.5227 26.0284C28.5114 28.1648 27.9659 30.017 26.8864 31.5852C25.8182 33.142 24.2727 34.3523 22.25 35.2159C20.2386 36.0682 17.8125 36.4943 14.9716 36.4943C12.1534 36.4943 9.69886 36.0625 7.60795 35.1989C5.52841 34.3352 3.90341 33.0568 2.73295 31.3636C1.57386 29.6591 0.965909 27.5511 0.909091 25.0398H8.05114C8.13068 26.2102 8.46591 27.1875 9.05682 27.9716C9.65909 28.7443 10.4602 29.3295 11.4602 29.7273C12.4716 30.1136 13.6136 30.3068 14.8864 30.3068C16.1364 30.3068 17.2216 30.125 18.142 29.7614C19.0739 29.3977 19.7955 28.892 20.3068 28.2443C20.8182 27.5966 21.0739 26.8523 21.0739 26.0114C21.0739 25.2273 20.8409 24.5682 20.375 24.0341C19.9205 23.5 19.25 23.0455 18.3636 22.6705C17.4886 22.2955 16.4148 21.9545 15.142 21.6477L11.3409 20.6932C8.39773 19.9773 6.07386 18.858 4.36932 17.3352C2.66477 15.8125 1.81818 13.7614 1.82955 11.1818C1.81818 9.06818 2.38068 7.22159 3.51705 5.64205C4.66477 4.0625 6.23864 2.82955 8.23864 1.94318C10.2386 1.05682 12.5114 0.613635 15.0568 0.613635C17.6477 0.613635 19.9091 1.05682 21.8409 1.94318C23.7841 2.82955 25.2955 4.0625 26.375 5.64205C27.4545 7.22159 28.0114 9.05114 28.0455 11.1307H20.9716ZM38.7074 36H30.7983L42.8494 1.09091H52.3608L64.3949 36H56.4858L47.7415 9.06818H47.4688L38.7074 36ZM38.2131 22.2784H56.8949V28.0398H38.2131V22.2784ZM68.5966 36V1.09091H75.9773V29.9148H90.9432V36H68.5966ZM98.3878 1.09091L106.825 27.6136H107.149L115.604 1.09091H123.786L111.751 36H102.24L90.1889 1.09091H98.3878ZM135.368 1.09091V36H127.987V1.09091H135.368ZM141.44 36V1.09091H148.821V16.483H149.281L161.844 1.09091H170.69L157.736 16.7216L170.844 36H162.014L152.452 21.6477L148.821 26.0795V36H141.44Z" fill="#9F0606"/>
</svg>
